<svg width="239" height="239" viewBox="0 0 239 239" fill="none" xmlns="http://www.w3.org/2000/svg">
<path d="M181.895 190.524C184.227 192.934 187.959 193.09 190.369 190.524C192.857 187.959 192.701 184.46 190.369 182.05L60.3811 52.1402C58.0488 49.8079 54.1616 49.8079 51.8293 52.1402C49.5747 54.3948 49.5747 58.3597 51.8293 60.6143L181.895 190.524ZM121.488 56.5716C107.96 56.5716 95.6769 58.9039 84.2485 62.7134L94.5107 72.8979C103.063 70.3323 111.848 68.8552 121.488 68.8552C172.643 68.8552 214.081 113.947 214.081 123.198C214.081 129.495 200.476 146.444 178.941 159.66L188.503 169.223C213.07 153.285 227.686 132.372 227.686 123.198C227.686 107.261 184.305 56.5716 121.488 56.5716ZM121.488 189.825C135.948 189.825 149.165 187.259 161.215 183.139L151.031 172.954C141.779 175.831 131.983 177.541 121.488 177.541C70.2546 177.541 28.8171 134.16 28.8171 123.198C28.8171 117.756 43.1997 99.6418 66.1342 85.8811L56.4939 76.2408C30.6052 92.2561 15.2119 113.791 15.2119 123.198C15.2119 139.058 59.4482 189.825 121.488 189.825ZM161.37 140.224C163.781 135.015 165.102 129.184 165.102 123.198C165.102 98.8643 145.666 79.6616 121.488 79.6616C115.346 79.6616 109.593 80.9832 104.384 83.2378L161.37 140.224ZM121.488 166.735C128.329 166.735 134.782 165.024 140.535 162.226L82.2272 103.918C79.3506 109.671 77.718 116.201 77.718 123.198C77.7958 146.91 97.154 166.735 121.488 166.735Z" fill="#D8A25E"/>
</svg>
