<svg width="239" height="239" viewBox="0 0 239 239" fill="none" xmlns="http://www.w3.org/2000/svg">
<path d="M121.488 183.191C184.305 183.191 227.686 132.424 227.686 116.564C227.686 100.627 184.227 49.9375 121.488 49.9375C59.5259 49.9375 15.2119 100.627 15.2119 116.564C15.2119 132.424 59.4482 183.191 121.488 183.191ZM121.488 170.907C70.2546 170.907 28.8171 127.526 28.8171 116.564C28.8171 107.313 70.2546 62.221 121.488 62.221C172.488 62.221 214.081 107.313 214.081 116.564C214.081 127.526 172.488 170.907 121.488 170.907ZM121.488 160.101C145.666 160.101 165.102 140.276 165.102 116.564C165.102 92.2302 145.666 73.0274 121.488 73.0274C97.154 73.0274 77.6403 92.2302 77.718 116.564C77.8735 140.276 97.154 160.101 121.488 160.101ZM121.488 131.024C113.402 131.024 106.872 124.494 106.872 116.564C106.872 108.556 113.402 102.104 121.488 102.104C129.495 102.104 136.026 108.556 136.026 116.564C136.026 124.494 129.495 131.024 121.488 131.024Z" fill="#D8A25E"/>
</svg>
