<svg width="400" height="400" viewBox="0 0 400 400" fill="none" xmlns="http://www.w3.org/2000/svg">
<circle cx="200" cy="200" r="200" fill="#D8A25E"/>
<path d="M94.5 212.625C94.5 187.876 94.5 175.502 102.188 167.813C109.877 160.125 122.251 160.125 147 160.125H252C276.749 160.125 289.123 160.125 296.812 167.813C304.5 175.502 304.5 187.876 304.5 212.625V238.875C304.5 275.998 304.5 294.56 292.967 306.092C281.435 317.625 262.873 317.625 225.75 317.625H173.25C136.127 317.625 117.565 317.625 106.033 306.092C94.5 294.56 94.5 275.998 94.5 238.875V212.625Z" stroke="#33363F" stroke-width="26.25"/>
<path d="M252 147V133.875C252 104.88 228.495 81.375 199.5 81.375V81.375C170.505 81.375 147 104.88 147 133.875V147" stroke="#33363F" stroke-width="26.25" stroke-linecap="round"/>
<circle cx="199.5" cy="238.875" r="26.25" fill="#33363F"/>
</svg>
